<?xml version="1.0" encoding="utf-8"?>
<!-- Generator: Adobe Illustrator 25.2.1, SVG Export Plug-In . SVG Version: 6.00 Build 0)  -->
<svg version="1.1" xmlns="http://www.w3.org/2000/svg" xmlns:xlink="http://www.w3.org/1999/xlink" x="0px" y="0px" width="560px"
	 height="529.08429px" viewBox="0 0 560 529.08429" style="enable-background:new 0 0 560 529.08429;" xml:space="preserve">
<style type="text/css">
	.st0{fill:#C7C5DB;}
	.st1{fill:none;stroke:#999999;stroke-width:0.75;stroke-miterlimit:10;}
	.st2{fill:#666666;}
	.st3{fill:#363636;}
	.st4{fill:#B8DFDC;}
	.st5{fill:#C8D388;}
	.st6{fill:#A1D3EB;}
	.st7{fill:#4F4F4F;}
	.st8{fill:#808080;}
	.st9{fill:#F15A24;}
	.st10{fill:#E6E6E6;}
	.st11{fill:none;stroke:#666666;stroke-width:0.7;stroke-miterlimit:10;}
	.st12{fill:#A0DCF1;}
	.st13{fill:#ED1C24;stroke:#ED1C24;stroke-width:0.4;stroke-miterlimit:10;}
	.st14{fill:none;stroke:#F15A24;stroke-miterlimit:10;}
	.st15{fill:#B3B3B3;}
	.st16{opacity:0.4;fill:#0583FF;}
	.st17{opacity:0.4;fill:#7D66FF;}
	.st18{opacity:0.6;fill:#F7A71E;}
	.st19{fill:#ECC2C2;}
	.st20{fill:#C7C9DE;}
	.st21{fill:#EECB7F;}
	.st22{fill:#B3E1F5;}
	.st23{fill:#F8AE94;}
	.st24{fill:#A7DE82;}
	.st25{fill:#FDD22A;}
	.st26{fill:none;stroke:#666666;stroke-width:0.7843;stroke-miterlimit:10;}
	.st27{fill:#ED1C24;stroke:#ED1C24;stroke-width:0.44817;stroke-miterlimit:10;}
	.st28{fill:none;stroke:#F15A24;stroke-width:1.12043;stroke-miterlimit:10;}
	.st29{fill:#FFFFFF;}
	.st30{fill:none;stroke:#5D5D5D;stroke-miterlimit:10;}
	.st31{fill:#9A9A9A;}
	.st32{fill:#999999;}
	.st33{fill:none;}
	.st34{fill:#1A1A1A;}
	.st35{fill:#CCCCCC;}
	.st36{fill:none;stroke:#B3B3B3;stroke-width:2.24085;stroke-linecap:round;stroke-linejoin:round;}
	.st37{fill:none;stroke:#B3B3B3;stroke-width:2.24085;stroke-linecap:round;stroke-linejoin:round;stroke-dasharray:0,5.5724;}
	.st38{fill:none;stroke:#808080;stroke-width:1.12043;stroke-linecap:round;stroke-linejoin:round;}
	.st39{fill:none;stroke:#B3B3B3;stroke-width:2;stroke-linecap:round;stroke-linejoin:round;}
	.st40{fill:none;stroke:#B3B3B3;stroke-width:2;stroke-linecap:round;stroke-linejoin:round;stroke-dasharray:0,4.97347;}
	.st41{fill:none;stroke:#808080;stroke-linecap:round;stroke-linejoin:round;}
	.st42{display:none;}
	.st43{display:inline;}
	.st44{fill:#6EA8AB;}
	.st45{fill:#809B49;}
	.st46{fill:#818AB9;}
</style>
<g id="Infog">
	<g>
		<g>
			<path class="st9" d="M176.87862,507.18823c0,3.08008-2.46387,5.54492-6.20996,5.54492
				c-3.74512,0-6.20996-2.46484-6.20996-5.54492c0-1.94629,1.05957-3.4502,2.51367-4.41113
				c-0.88672-0.81348-1.52832-1.89746-1.52832-3.1543c0-2.63672,2.29199-4.78027,5.22461-4.78027
				c2.9082,0,5.22461,2.14355,5.22461,4.78027c0,1.25684-0.64062,2.34082-1.55273,3.1543
				C175.79463,503.73804,176.87862,505.24194,176.87862,507.18823z M173.82295,507.18823c0-1.52734-1.33008-2.68555-3.1543-2.68555
				c-1.82324,0-3.17871,1.1582-3.17871,2.68555c0,1.52832,1.35547,2.68652,3.17871,2.68652
				C172.49287,509.87476,173.82295,508.71655,173.82295,507.18823z M168.4753,499.6228c0,1.23242,1.13379,1.89746,2.19336,1.89746
				s2.16895-0.66504,2.16895-1.89746c0-1.25684-1.10938-1.92188-2.16895-1.92188S168.4753,498.36597,168.4753,499.6228z"/>
			<path class="st9" d="M207.88545,504.72437v7.81152h-2.56348v-6.94922c0-1.99609-0.88672-3.32715-2.48828-3.32715
				c-1.97168,0-3.2041,2.02051-3.32715,4.63281v5.64355h-2.5625v-6.94922c0-1.99609-0.8623-3.32715-2.48926-3.32715
				c-1.97168,0-3.20312,2.02051-3.32715,4.63281v5.64355h-2.5625v-12.46973h2.41504l0.12305,1.94727
				c1.08496-1.25684,2.51367-2.19336,4.3125-2.19336c1.87305,0,3.12988,1.01074,3.72168,2.6123
				c1.13281-1.4541,2.66113-2.6123,4.65723-2.6123C206.45576,499.82007,207.88545,501.84058,207.88545,504.72437z"/>
			<path class="st9" d="M223.04659,500.06616v12.46973h-2.41504l-0.12402-1.99609c-1.18262,1.25684-2.78418,2.24219-4.80469,2.24219
				c-2.93262,0-4.58398-1.92188-4.58398-5.39648v-7.31934h2.56348v6.18555c0,3.00684,1.20703,4.09082,3.00586,4.09082
				c2.5625,0,3.79492-2.11914,3.79492-4.06641v-6.20996H223.04659z"/>
			<path class="st9" d="M229.18623,512.53589h-2.5625v-18.48242h2.5625V512.53589z"/>
			<path class="st9" d="M239.14424,502.50659h-2.66211v10.0293h-2.58691v-10.0293h-1.84863v-2.44043h1.84863v-3.69629h2.58691
				v3.69629h2.66211V502.50659z"/>
			<path class="st9" d="M241.75948,496.7644c0-0.76367,0.61621-1.37988,1.37988-1.37988s1.37988,0.61621,1.37988,1.37988
				s-0.61621,1.37988-1.37988,1.37988S241.75948,497.52808,241.75948,496.7644z M244.42061,512.53589h-2.5625v-12.46973h2.5625
				V512.53589z"/>
			<path class="st9" d="M248.19209,500.06616h2.41504l0.14746,2.56348c0.74023-1.57715,2.51367-2.80957,4.75684-2.80957
				c3.57323,0,6.25877,2.9082,6.25877,6.48145s-2.68555,6.48047-6.25877,6.48047c-2.24316,0-4.0166-1.23145-4.75684-2.83398v8.25586
				h-2.5625V500.06616z M255.09248,510.34253c2.34081,0,4.09081-1.82324,4.09081-4.04102s-1.75-4.04199-4.09081-4.04199
				c-2.3418,0-4.04199,1.82422-4.04199,4.04199S252.75069,510.34253,255.09248,510.34253z"/>
			<path class="st9" d="M267.17157,512.53589h-2.5625v-18.48242h2.5625V512.53589z"/>
			<path class="st9" d="M270.47528,496.7644c0-0.76367,0.61621-1.37988,1.37988-1.37988s1.37988,0.61621,1.37988,1.37988
				s-0.61621,1.37988-1.37988,1.37988S270.47528,497.52808,270.47528,496.7644z M273.13641,512.53589h-2.5625v-12.46973h2.5625
				V512.53589z"/>
			<path class="st9" d="M283.21747,502.25952c-2.11914,0-4.11523,1.67578-4.11523,4.04199
				c0,2.36523,1.99609,4.04102,4.11523,4.04102c1.28125,0,2.39062-0.46777,3.37598-1.42871v2.48828
				c-0.88672,0.83789-2.16895,1.37988-3.77051,1.37988c-3.67188,0-6.43164-2.95703-6.43164-6.48047
				c0-3.5,2.75977-6.48145,6.43164-6.48145c1.60156,0,2.88379,0.54199,3.77051,1.37988v2.46484
				C285.60809,502.70288,284.49872,502.25952,283.21747,502.25952z"/>
			<path class="st9" d="M295.46844,499.82007c2.24219,0,4.0166,1.23242,4.73145,2.80957l0.14746-2.56348h2.43945v12.46973h-2.43945
				l-0.14746-2.58789c-0.71484,1.60254-2.48926,2.83398-4.73145,2.83398c-3.57324,0-6.25977-2.90723-6.25977-6.48047
				S291.8952,499.82007,295.46844,499.82007z M295.88739,510.34253c2.31641,0,4.04102-1.82324,4.04102-4.04102
				s-1.72461-4.04199-4.04102-4.04199c-2.36621,0-4.11621,1.82422-4.11621,4.04199S293.52118,510.34253,295.88739,510.34253z"/>
			<path class="st9" d="M312.87079,502.50659h-2.66211v10.0293h-2.58691v-10.0293h-1.84863v-2.44043h1.84863v-3.69629h2.58691
				v3.69629h2.66211V502.50659z"/>
			<path class="st9" d="M315.48602,496.7644c0-0.76367,0.61621-1.37988,1.37988-1.37988s1.37988,0.61621,1.37988,1.37988
				s-0.61621,1.37988-1.37988,1.37988S315.48602,497.52808,315.48602,496.7644z M318.14716,512.53589h-2.5625v-12.46973h2.5625
				V512.53589z"/>
			<path class="st9" d="M321.40106,506.30151c0-3.57324,2.80957-6.48145,6.67871-6.48145c3.81934,0,6.60352,2.9082,6.60352,6.48145
				s-2.78418,6.48047-6.60352,6.48047C324.21063,512.78198,321.40106,509.87476,321.40106,506.30151z M332.12079,506.30151
				c0-2.21777-1.72461-4.04199-4.04102-4.04199c-2.36621,0-4.11621,1.82422-4.11621,4.04199s1.75,4.04102,4.11621,4.04102
				C330.39618,510.34253,332.12079,508.51929,332.12079,506.30151z"/>
			<path class="st9" d="M349.59735,505.21655v7.31934h-2.56348v-6.18555c0-3.00586-1.20703-4.09082-3.00586-4.09082
				c-2.44043,0-3.67188,1.92285-3.7959,3.77051v6.50586h-2.5625v-12.46973h2.41504l0.12305,1.99609
				c1.18262-1.25684,2.78516-2.24219,4.80566-2.24219C347.94598,499.82007,349.59735,501.74194,349.59735,505.21655z"/>
			<path class="st9" d="M355.04657,508.91382c0.24707,1.00977,1.28223,1.7002,2.88379,1.7002
				c1.25684,0,2.2666-0.49316,2.2666-1.37988c0-1.18359-1.13281-1.4541-3.69629-2.3418
				c-1.9707-0.64062-3.62207-1.60156-3.62207-3.62207c0-2.14453,2.16797-3.4502,4.41113-3.4502
				c2.88281,0,4.65723,1.62695,4.78027,3.67188h-2.58691c-0.09863-1.03516-1.13379-1.52832-2.09473-1.52832
				c-0.91211,0-1.92285,0.44434-1.92285,1.30664c0,0.98535,1.06055,1.20703,3.62305,2.16895
				c2.53809,0.88672,3.69629,2.11914,3.69629,3.84375c0,2.21777-2.14355,3.49902-4.9043,3.49902
				c-3.00586,0-5.15039-1.30566-5.39648-3.86816H355.04657z"/>
		</g>
	</g>
	<path class="st4" d="M144.77757,93.8596H81.09433c-9.82053,0-17.78165-7.96112-17.78165-17.78166v-0.00003
		c0-9.82054,7.96112-17.78166,17.78165-17.78166h63.68324c9.82054,0,17.78166,7.96112,17.78166,17.78166v0.00003
		C162.55923,85.89848,154.59811,93.8596,144.77757,93.8596z"/>
	<path class="st10" d="M484.09811,150.67572h-77.53439c-8.74786,0-15.83942-7.09154-15.83942-15.8394V66.53964
		c0-8.74786,7.09155-15.8394,15.83942-15.8394h77.53439c8.74786,0,15.83939,7.09154,15.83939,15.8394v68.29668
		C499.9375,143.58418,492.84598,150.67572,484.09811,150.67572z"/>
	<path class="st16" d="M144.77757,142.65582H81.09433c-9.82053,0-17.78165-7.96112-17.78165-17.78165v-0.00004
		c0-9.82053,7.96112-17.78165,17.78165-17.78165h63.68324c9.82054,0,17.78166,7.96112,17.78166,17.78165v0.00004
		C162.55923,134.6947,154.59811,142.65582,144.77757,142.65582z"/>
	<path class="st17" d="M320.04443,69.04794v63.68324c0,9.82054-7.96112,17.78166-17.78165,17.78166h-0.00003
		c-9.82056,0-17.78168-7.96112-17.78168-17.78166V69.04794c0-9.82053,7.96112-17.78165,17.78168-17.78165h0.00003
		C312.08331,51.26629,320.04443,59.22741,320.04443,69.04794z"/>
	<path class="st10" d="M469.35291,249.51393v197.69756c0,13.04364-10.57394,23.61758-23.61758,23.61758h-0.00006
		c-13.04364,0-23.61758-10.57394-23.61758-23.61758V249.51393c0-13.04364,10.57394-23.6176,23.61758-23.6176h0.00006
		C458.77896,225.89633,469.35291,236.47029,469.35291,249.51393z"/>
	<path class="st18" d="M265.26068,69.04794v63.68324c0,9.82054-7.96112,17.78166-17.78166,17.78166h-0.00003
		c-9.82054,0-17.78165-7.96112-17.78165-17.78166V69.04794c0-9.82053,7.96111-17.78165,17.78165-17.78165h0.00003
		C257.29956,51.26629,265.26068,59.22741,265.26068,69.04794z"/>
	<polygon class="st7" points="201.94453,104.11085 196.16605,98.33236 201.94446,92.55395 201.05974,91.66923 195.28133,97.44764 
		189.5029,91.66923 188.61812,92.55402 194.39653,98.33244 188.61812,104.11085 189.50284,104.99557 195.28125,99.21716 
		201.05974,104.99564 	"/>
	<g>
		<g>
			<path class="st8" d="M118.50752,27.5476h-7.39746l-1.50977,4.17676h-2.71777l6.44141-17.86475h2.96973l6.44141,17.86475h-2.71777
				L118.50752,27.5476z M117.62666,25.05639l-2.81836-7.7749l-2.79297,7.7749H117.62666z"/>
		</g>
	</g>
	<g>
		<g>
			<path class="st8" d="M282.5495,26.66674c0,3.24609-2.44043,5.05762-6.29102,5.05762h-5.73633V13.85961h5.35938
				c3.72363,0,5.66113,1.9624,5.66113,4.73047c0,1.53467-0.72949,2.79297-1.88672,3.59814
				C281.3161,23.06859,282.5495,24.62865,282.5495,26.66674z M273.13837,21.10619h2.74316c1.9375,0,3.01953-0.72998,3.01953-2.39062
				c0-1.53467-1.08203-2.36523-3.01953-2.36523h-2.74316V21.10619z M279.90692,26.51586c0-1.71094-1.23242-2.91895-3.52246-2.91895
				h-3.24609v5.63623h3.12012C278.6745,29.23314,279.90692,28.25219,279.90692,26.51586z"/>
		</g>
	</g>
	<g>
		<polyline class="st26" points="63.10591,150.76115 55.86919,150.76115 55.86919,49.03344 63.10591,49.03344 		"/>
		<rect x="55.86919" y="49.06571" class="st2" width="1.8252" height="101.63091"/>
	</g>
	<g>
		<polyline class="st26" points="224.38156,150.76115 217.14484,150.76115 217.14484,49.03344 224.38156,49.03344 		"/>
		<rect x="217.14484" y="49.06571" class="st2" width="1.8252" height="101.63091"/>
	</g>
	<g>
		<polyline class="st26" points="326.47971,49.03344 333.71643,49.03344 333.71643,150.76115 326.47971,150.76115 		"/>
		<rect x="331.89124" y="49.06571" class="st17" width="1.8252" height="101.63091"/>
	</g>
	<g>
		<polyline class="st26" points="386.64795,150.76115 379.41122,150.76115 379.41122,49.03344 386.64795,49.03344 		"/>
		<rect x="379.41122" y="49.06571" class="st2" width="1.8252" height="101.63091"/>
	</g>
	<g>
		<polyline class="st26" points="503.20551,49.03344 510.44226,49.03344 510.44226,150.76115 503.20551,150.76115 		"/>
		<rect x="508.61703" y="49.06571" class="st2" width="1.8252" height="101.63091"/>
	</g>
	<g>
		<polyline class="st26" points="165.20407,49.03344 172.4408,49.03344 172.4408,150.76115 165.20407,150.76115 		"/>
		<rect x="170.6156" y="49.06571" class="st2" width="1.8252" height="101.63091"/>
	</g>
	<g>
		
			<rect x="355.67682" y="92.41808" transform="matrix(6.123234e-17 -1 1 6.123234e-17 255.65785 456.87149)" class="st7" width="1.17569" height="16.37748"/>
		
			<rect x="355.67682" y="87.18628" transform="matrix(6.123234e-17 -1 1 6.123234e-17 260.88965 451.63968)" class="st7" width="1.17569" height="16.37748"/>
	</g>
	<path class="st4" d="M170.6066,270.71326h-0.00005c-9.82053,0-17.78165-7.96112-17.78165-17.78166v-0.00003
		c0-9.82054,7.96112-17.78166,17.78165-17.78166h0.00005c9.82053,0,17.78165,7.96112,17.78165,17.78166v0.00003
		C188.38824,262.75214,180.42712,270.71326,170.6066,270.71326z"/>
	<path class="st17" d="M234.32426,270.71326h-0.00005c-9.82053,0-17.78165-7.96112-17.78165-17.78166v-0.00003
		c0-9.82054,7.96112-17.78166,17.78165-17.78166h0.00005c9.82054,0,17.78165,7.96112,17.78165,17.78166v0.00003
		C252.10591,262.75214,244.14481,270.71326,234.32426,270.71326z"/>
	<path class="st4" d="M298.47269,270.71326h-0.00003c-9.82053,0-17.78165-7.96112-17.78165-17.78166v-0.00003
		c0-9.82054,7.96112-17.78166,17.78165-17.78166h0.00003c9.82056,0,17.78165,7.96112,17.78165,17.78166v0.00003
		C316.25433,262.75214,308.29324,270.71326,298.47269,270.71326z"/>
	<path class="st17" d="M362.75034,270.71326h-0.00003c-9.82056,0-17.78165-7.96112-17.78165-17.78166v-0.00003
		c0-9.82054,7.96109-17.78166,17.78165-17.78166h0.00003c9.82053,0,17.78165,7.96112,17.78165,17.78166v0.00003
		C380.53198,262.75214,372.57086,270.71326,362.75034,270.71326z"/>
	<polygon class="st27" points="209.42654,259.39105 203.64806,253.61256 209.42647,247.83414 208.54175,246.94942 
		202.76332,252.72784 196.98491,246.94942 196.10011,247.83421 201.87854,253.61263 196.10011,259.39105 196.98483,260.27576 
		202.76326,254.49736 208.54175,260.27585 	"/>
	<polygon class="st27" points="337.68863,259.39105 331.91016,253.61256 337.68857,247.83414 336.80383,246.94942 
		331.02542,252.72784 325.24701,246.94942 324.36221,247.83421 330.14062,253.61263 324.36221,259.39105 325.24695,260.27576 
		331.02536,254.49736 336.80383,260.27585 	"/>
	
		<rect x="400.88992" y="247.69829" transform="matrix(6.123234e-17 -1 1 6.123234e-17 145.59076 657.36481)" class="st3" width="1.17569" height="16.37748"/>
	
		<rect x="400.88992" y="242.46648" transform="matrix(6.123234e-17 -1 1 6.123234e-17 150.82256 652.133)" class="st3" width="1.17569" height="16.37748"/>
	<g>
		<g>
			<line class="st28" x1="203.41475" y1="492.61353" x2="203.41475" y2="466.53583"/>
			<g>
				<polygon class="st9" points="207.99702,470.24829 207.17647,471.01257 203.41573,466.96582 199.65401,471.01257 
					198.83345,470.24829 203.41573,465.32068 				"/>
			</g>
		</g>
	</g>
	<g>
		<g>
			<line class="st28" x1="330.78094" y1="492.61353" x2="330.78094" y2="466.53583"/>
			<g>
				<polygon class="st9" points="335.36346,470.24829 334.54266,471.01257 330.78217,466.96582 327.02045,471.01257 
					326.19965,470.24829 330.78217,465.32068 				"/>
			</g>
		</g>
	</g>
	<path class="st4" d="M169.97769,333.08667h-0.00005c-9.82054,0-17.78165-7.96109-17.78165-17.78165v-0.00003
		c0-9.82053,7.96111-17.78165,17.78165-17.78165h0.00005c9.82053,0,17.78165,7.96112,17.78165,17.78165v0.00003
		C187.75934,325.12558,179.79822,333.08667,169.97769,333.08667z"/>
	<path class="st18" d="M234.32426,333.08667h-0.00005c-9.82053,0-17.78165-7.96109-17.78165-17.78165v-0.00003
		c0-9.82053,7.96112-17.78165,17.78165-17.78165h0.00005c9.82054,0,17.78165,7.96112,17.78165,17.78165v0.00003
		C252.10591,325.12558,244.14481,333.08667,234.32426,333.08667z"/>
	<path class="st4" d="M298.47269,333.08667h-0.00003c-9.82053,0-17.78165-7.96109-17.78165-17.78165v-0.00003
		c0-9.82053,7.96112-17.78165,17.78165-17.78165h0.00003c9.82056,0,17.78165,7.96112,17.78165,17.78165v0.00003
		C316.25433,325.12558,308.29324,333.08667,298.47269,333.08667z"/>
	<path class="st18" d="M362.75034,333.08667h-0.00003c-9.82056,0-17.78165-7.96109-17.78165-17.78165v-0.00003
		c0-9.82053,7.96109-17.78165,17.78165-17.78165h0.00003c9.82053,0,17.78165,7.96112,17.78165,17.78165v0.00003
		C380.53198,325.12558,372.57086,333.08667,362.75034,333.08667z"/>
	<polygon class="st27" points="209.42654,322.32471 203.64806,316.5462 209.42647,310.76779 208.54175,309.88306 
		202.76332,315.6615 196.98491,309.88306 196.10011,310.76785 201.87854,316.54626 196.10011,322.32471 196.98483,323.20941 
		202.76326,317.431 208.54175,323.20947 	"/>
	<polygon class="st27" points="337.68863,322.32471 331.91016,316.5462 337.68857,310.76779 336.80383,309.88306 
		331.02542,315.6615 325.24701,309.88306 324.36221,310.76785 330.14062,316.54626 324.36221,322.32471 325.24695,323.20941 
		331.02536,317.431 336.80383,323.20947 	"/>
	
		<rect x="400.88992" y="310.63193" transform="matrix(6.123234e-17 -1 1 6.123234e-17 82.65711 720.29846)" class="st3" width="1.17569" height="16.37748"/>
	
		<rect x="400.88992" y="305.40012" transform="matrix(6.123234e-17 -1 1 6.123234e-17 87.88892 715.06665)" class="st3" width="1.17569" height="16.37748"/>
	<path class="st16" d="M169.97769,458.9541h-0.00005c-9.82054,0-17.78165-7.96112-17.78165-17.78165v-0.00006
		c0-9.82053,7.96111-17.78165,17.78165-17.78165h0.00005c9.82053,0,17.78165,7.96112,17.78165,17.78165v0.00006
		C187.75934,450.99298,179.79822,458.9541,169.97769,458.9541z"/>
	<path class="st17" d="M234.32426,458.9541h-0.00005c-9.82053,0-17.78165-7.96112-17.78165-17.78165v-0.00006
		c0-9.82053,7.96112-17.78165,17.78165-17.78165h0.00005c9.82054,0,17.78165,7.96112,17.78165,17.78165v0.00006
		C252.10591,450.99298,244.14481,458.9541,234.32426,458.9541z"/>
	<path class="st16" d="M298.47269,458.9541h-0.00003c-9.82053,0-17.78165-7.96112-17.78165-17.78165v-0.00006
		c0-9.82053,7.96112-17.78165,17.78165-17.78165h0.00003c9.82056,0,17.78165,7.96112,17.78165,17.78165v0.00006
		C316.25433,450.99298,308.29324,458.9541,298.47269,458.9541z"/>
	<path class="st17" d="M362.75034,458.9541h-0.00003c-9.82056,0-17.78165-7.96112-17.78165-17.78165v-0.00006
		c0-9.82053,7.96109-17.78165,17.78165-17.78165h0.00003c9.82053,0,17.78165,7.96112,17.78165,17.78165v0.00006
		C380.53198,450.99298,372.57086,458.9541,362.75034,458.9541z"/>
	<polygon class="st27" points="209.42654,448.19211 203.64806,442.4136 209.42647,436.63519 208.54175,435.75049 
		202.76332,441.5289 196.98491,435.75049 196.10011,436.63528 201.87854,442.4137 196.10011,448.19211 196.98483,449.07684 
		202.76326,443.2984 208.54175,449.0769 	"/>
	<polygon class="st27" points="337.68863,448.19211 331.91016,442.4136 337.68857,436.63519 336.80383,435.75049 
		331.02542,441.5289 325.24701,435.75049 324.36221,436.63528 330.14062,442.4137 324.36221,448.19211 325.24695,449.07684 
		331.02536,443.2984 336.80383,449.0769 	"/>
	
		<rect x="400.88992" y="436.49933" transform="matrix(6.123234e-17 -1 1 6.123234e-17 -43.2103 846.16583)" class="st3" width="1.17569" height="16.37748"/>
	
		<rect x="400.88992" y="431.26755" transform="matrix(6.123234e-17 -1 1 6.123234e-17 -37.9785 840.93408)" class="st3" width="1.17569" height="16.37748"/>
	<path class="st16" d="M169.97769,396.02066h-0.00005c-9.82054,0-17.78165-7.96109-17.78165-17.78165v-0.00003
		c0-9.82053,7.96111-17.78165,17.78165-17.78165h0.00005c9.82053,0,17.78165,7.96112,17.78165,17.78165v0.00003
		C187.75934,388.05957,179.79822,396.02066,169.97769,396.02066z"/>
	<path class="st18" d="M234.32426,396.02066h-0.00005c-9.82053,0-17.78165-7.96109-17.78165-17.78165v-0.00003
		c0-9.82053,7.96112-17.78165,17.78165-17.78165h0.00005c9.82054,0,17.78165,7.96112,17.78165,17.78165v0.00003
		C252.10591,388.05957,244.14481,396.02066,234.32426,396.02066z"/>
	<path class="st16" d="M298.47269,396.02066h-0.00003c-9.82053,0-17.78165-7.96109-17.78165-17.78165v-0.00003
		c0-9.82053,7.96112-17.78165,17.78165-17.78165h0.00003c9.82056,0,17.78165,7.96112,17.78165,17.78165v0.00003
		C316.25433,388.05957,308.29324,396.02066,298.47269,396.02066z"/>
	<path class="st18" d="M362.75034,396.02066h-0.00003c-9.82056,0-17.78165-7.96109-17.78165-17.78165v-0.00003
		c0-9.82053,7.96109-17.78165,17.78165-17.78165h0.00003c9.82053,0,17.78165,7.96112,17.78165,17.78165v0.00003
		C380.53198,388.05957,372.57086,396.02066,362.75034,396.02066z"/>
	<polygon class="st27" points="209.42654,385.2587 203.64806,379.48019 209.42647,373.70178 208.54175,372.81705 
		202.76332,378.59549 196.98491,372.81705 196.10011,373.70184 201.87854,379.48026 196.10011,385.2587 196.98483,386.1434 
		202.76326,380.36499 208.54175,386.14349 	"/>
	<polygon class="st27" points="337.68863,385.2587 331.91016,379.48019 337.68857,373.70178 336.80383,372.81705 
		331.02542,378.59549 325.24701,372.81705 324.36221,373.70184 330.14062,379.48026 324.36221,385.2587 325.24695,386.1434 
		331.02536,380.36499 336.80383,386.14349 	"/>
	
		<rect x="400.88992" y="373.56592" transform="matrix(6.123234e-17 -1 1 6.123234e-17 19.72312 783.23242)" class="st3" width="1.17569" height="16.37748"/>
	
		<rect x="400.88992" y="368.33411" transform="matrix(6.123234e-17 -1 1 6.123234e-17 24.95493 778.00061)" class="st3" width="1.17569" height="16.37748"/>
	<g>
		<g>
			<path class="st15" d="M444.02313,178.42897c-0.63745-0.00555-0.17798-0.01108-0.3208-0.01663l-0.00244-0.01663l-0.00464-0.0332
				l-0.00952-0.06641l-0.01855-0.13254l-0.03662-0.26413c-0.03271-0.17426-0.02759-0.35388-0.08984-0.52182
				c-0.12671-0.33304-0.18408-0.68417-0.35938-0.99554c-0.29785-0.64047-0.68799-1.23962-1.1665-1.76968
				c-0.94922-1.06778-2.14453-1.9209-3.43188-2.59177c-1.29175-0.66946-2.65894-1.19815-4.06445-1.60941
				c-1.41919-0.36716-2.85596-0.6795-4.32031-0.81989c-0.72632-0.10434-1.46509-0.10974-2.19531-0.1705
				c-0.74048,0.00171-1.45679-0.03372-2.21436-0.02213l-4.5293,0.04611l-9.05835,0.03918l-9.05859-0.02869l-4.5293-0.04788
				c-1.49048-0.02185-3.05933-0.00626-4.60278-0.21283c-1.54297-0.17181-3.07568-0.45871-4.56812-0.90289
				c-1.49487-0.42612-2.95996-0.98874-4.33008-1.75613c-1.35889-0.776-2.646-1.73035-3.66187-2.96381l-0.37549-0.46487
				l-0.31885-0.51132c-0.22729-0.33078-0.39087-0.70038-0.53931-1.07663c-0.17896-0.36154-0.22778-0.77429-0.3269-1.16168
				c-0.05933-0.19293-0.04614-0.39948-0.06201-0.5993l-0.01416-0.3009l-0.00684-0.14993l-0.00317-0.07483l-0.00171-0.03738
				l-0.00073-0.01868c0.14185-0.00623-0.3186-0.01245,0.31787-0.01868c0.63745,0.00552,0.17798,0.01105,0.32104,0.01657
				l0.0022,0.01654l0.00488,0.03311l0.00952,0.06613l0.0188,0.13199l0.03687,0.26294
				c0.03027,0.17389,0.02954,0.3519,0.10034,0.51755c0.12256,0.33249,0.18604,0.6796,0.3772,0.98373
				c0.15283,0.31766,0.31226,0.62961,0.53687,0.90915l0.30859,0.43063l0.36499,0.39185
				c0.97925,1.03848,2.21313,1.83578,3.51611,2.46683c1.29517,0.65518,2.68921,1.12888,4.11157,1.47037
				c1.41846,0.36011,2.87646,0.57123,4.33862,0.67303c2.88916,0.16501,5.97217,0.01974,8.97583,0.01926l9.05859-0.02869
				l9.05835,0.03918l4.5293,0.04611c0.7522,0.00714,1.54468,0.04587,2.31348,0.08337c0.771,0.09308,1.54614,0.13193,2.31079,0.27142
				c1.53735,0.21027,3.04712,0.59888,4.53271,1.04883c1.47339,0.49921,2.91577,1.10657,4.26709,1.90134
				c1.33765,0.81238,2.58398,1.82202,3.56323,3.0798c0.49121,0.62448,0.89478,1.328,1.17871,2.07996
				c0.16211,0.36633,0.2041,0.77966,0.30762,1.16348c0.05054,0.19376,0.03271,0.4003,0.05151,0.59875l0.01465,0.29971
				l0.00684,0.14938l0.00342,0.07458l0.00171,0.03726l0.00073,0.01862C444.19916,178.41655,444.65961,178.42278,444.02313,178.42897
				z"/>
		</g>
		<g>
			<path class="st15" d="M443.58075,178.42897c-0.63647-0.0062-0.17603-0.01242-0.31787-0.01862l0.00098-0.01862l0.00171-0.03726
				l0.00317-0.07458l0.00708-0.14938l0.0144-0.29971c0.0188-0.19846,0.00122-0.405,0.05176-0.59875
				c0.10327-0.38382,0.14526-0.79715,0.30762-1.16348c0.28394-0.75195,0.6875-1.45547,1.17847-2.07996
				c0.97925-1.25778,2.22583-2.26743,3.56323-3.0798c1.35132-0.79477,2.79395-1.40213,4.26733-1.90134
				c1.48535-0.44995,2.99512-0.83856,4.53247-1.04883c0.76489-0.1395,1.53979-0.17834,2.31104-0.27142
				c0.76855-0.03751,1.56104-0.07623,2.31348-0.08337l4.52905-0.04611l9.05859-0.03918l9.05835,0.02869
				c3.00366,0.00049,6.08691,0.14575,8.97583-0.01926c1.4624-0.10181,2.92041-0.31293,4.33862-0.67303
				c1.42236-0.34149,2.81641-0.81519,4.11157-1.47037c1.30298-0.63104,2.53711-1.42834,3.51636-2.46683l0.36475-0.39185
				l0.30884-0.43063c0.22437-0.27954,0.38379-0.59149,0.53662-0.90915c0.19116-0.30414,0.25464-0.65125,0.3772-0.98373
				c0.0708-0.16565,0.07007-0.34366,0.10059-0.51755l0.03687-0.26294l0.0188-0.13199l0.00928-0.06613l0.00488-0.03311
				l0.00244-0.01654c0.14282-0.00552-0.31665-0.01105,0.32104-0.01657c0.63647,0.00623,0.17578,0.01245,0.31763,0.01868
				l-0.00073,0.01868l-0.00171,0.03738l-0.00317,0.07483l-0.00659,0.14993l-0.0144,0.3009
				c-0.01587,0.19983-0.00269,0.40637-0.06177,0.5993c-0.09912,0.38739-0.14795,0.80014-0.32715,1.16168
				c-0.14819,0.37625-0.31201,0.74585-0.53906,1.07663l-0.31909,0.51132l-0.37524,0.46487
				c-1.01587,1.23346-2.30322,2.18781-3.66211,2.96381c-1.36987,0.7674-2.83521,1.33002-4.33008,1.75613
				c-1.49243,0.44418-3.02515,0.73108-4.56812,0.90289c-1.54321,0.20657-3.1123,0.19098-4.60278,0.21283l-4.5293,0.04788
				l-9.05835,0.02869l-9.05859-0.03918l-4.52905-0.04611c-0.75757-0.0116-1.47388,0.02383-2.21436,0.02213
				c-0.73022,0.06076-1.46899,0.06616-2.19556,0.1705c-1.46436,0.14038-2.90112,0.45273-4.32007,0.81989
				c-1.40552,0.41125-2.77295,0.93994-4.0647,1.60941c-1.28735,0.67087-2.48267,1.52399-3.43188,2.59177
				c-0.47827,0.53006-0.86841,1.12921-1.16626,1.76968c-0.17529,0.31137-0.23267,0.66251-0.35962,0.99554
				c-0.06201,0.16794-0.05688,0.34756-0.08984,0.52182l-0.03662,0.26413l-0.01855,0.13254l-0.00928,0.06641l-0.00488,0.0332
				l-0.0022,0.01663C443.75873,178.41789,444.2182,178.42342,443.58075,178.42897z"/>
		</g>
	</g>
	<g>
		<g>
			<line class="st36" x1="17.75166" y1="201.1031" x2="17.75166" y2="201.1031"/>
			<line class="st37" x1="23.32417" y1="201.1031" x2="538.77142" y2="201.1031"/>
			<line class="st36" x1="541.55756" y1="201.1031" x2="541.55756" y2="201.1031"/>
		</g>
	</g>
	<rect x="438.10251" y="197.05116" class="st29" width="11.78747" height="8.8406"/>
	<g>
		<g>
			<line class="st38" x1="443.97675" y1="226.13823" x2="443.97675" y2="185.53539"/>
			<g>
				<polygon class="st8" points="448.55902,189.24788 447.73846,190.01216 443.97772,185.96538 440.216,190.01216 
					439.39545,189.24788 443.97772,184.32027 				"/>
			</g>
		</g>
	</g>
</g>
<g id="Arrows" class="st42">
	<g class="st43">
		<g>
			<g>
				<path class="st41" d="M127.75185,11.69965c0,0,60.97034-64.01882,155.99779-7.57137"/>
				<g>
					<polygon class="st8" points="278.83887,6.06958 278.60754,5.09581 283.40588,3.96154 281.92383,-0.7418 282.87878,-1.04168 
						284.6825,4.68682 					"/>
				</g>
			</g>
		</g>
		<g>
			<g>
				<path class="st41" d="M127.75185,13.01471c0,0,50.70422-36.40305,107.29932-8.80989"/>
				<g>
					<polygon class="st8" points="230.31117,6.53377 230.00246,5.58168 234.69447,4.06627 232.8401,-0.50306 233.76784,-0.87855 
						236.02516,4.68685 					"/>
				</g>
			</g>
		</g>
		<circle class="st44" cx="127.09431" cy="13.67225" r="4.16438"/>
	</g>
	<g class="st43">
		<g>
			<g>
				<path class="st41" d="M127.75185,89.72005c0,0,60.97034,64.01879,155.99779,7.57135"/>
				<g>
					<polygon class="st8" points="282.87927,102.46221 281.92432,102.16233 283.40686,97.45986 278.60803,96.32473 
						278.83936,95.35094 284.68347,96.73458 					"/>
				</g>
			</g>
		</g>
		<g>
			<g>
				<path class="st41" d="M127.75185,88.40498c0,0,50.70422,36.40306,107.29932,8.80989"/>
				<g>
					<polygon class="st8" points="233.76833,102.29913 232.84047,101.92364 234.69533,97.35519 230.00294,95.83889 
						230.31154,94.8868 236.02602,96.73461 					"/>
				</g>
			</g>
		</g>
		<circle class="st46" cx="127.09431" cy="87.74744" r="4.16438"/>
	</g>
</g>
<g id="numbers">
	<g>
		<g>
			<path class="st7" d="M176.6003,259.98267v2.13965h-10.98828v-2.13965h4.3584v-13.81398l-3.61816,0.89844v-2.27148
				l5.88965-1.42676v16.61378H176.6003z"/>
			<path class="st7" d="M240.57393,255.99437c0,3.46046-2.82617,6.39211-6.60254,6.39211
				c-3.83008,0-6.65625-2.93164-6.65625-6.39211c0-1.29395,0.39551-2.53564,1.10938-3.56543l5.91602-9.06006h2.61523
				l-4.2002,6.31299c0.39648-0.05273,0.79297-0.10596,1.21582-0.10596C237.74776,249.57591,240.57393,252.56078,240.57393,255.99437
				z M238.32881,255.99437c0-2.27148-1.875-4.27881-4.35742-4.27881c-2.53613,0-4.38477,2.00732-4.38477,4.27881
				c0,2.2715,1.84863,4.25246,4.38477,4.25246C236.45381,260.24683,238.32881,258.26587,238.32881,255.99437z"/>
			<path class="st7" d="M265.22528,260.30396v-6.43605h-6.42285v-1.05762h6.42285v-6.41016h1.03125v6.41016h6.44922v1.05762
				h-6.44922v6.43605H265.22528z"/>
			<path class="st7" d="M293.53387,259.98267h10.75v2.13965h-13.04785v-2.13965c0-5.49367,10.77637-6.15382,10.77637-11.09328
				c0-2.11279-1.6377-3.64502-3.88281-3.64502c-2.77246,0-4.62207,1.69043-4.62207,3.93555h-2.27148
				c0-3.38086,2.85254-6.07471,6.9209-6.07471c3.48633,0,6.12695,2.32422,6.12695,5.86328
				C304.28387,255.43968,293.53387,256.12671,293.53387,259.98267z"/>
			<path class="st7" d="M368.60126,256.60181c0,3.22266-2.64062,5.6792-6.52344,5.6792s-6.52441-2.45654-6.52441-5.6792
				c0-2.19191,1.29492-3.88234,3.06445-4.83351c-1.16211-0.84521-2.00781-2.11279-2.00781-3.67139
				c0-2.87891,2.53613-4.88623,5.46777-4.88623s5.46777,2.00732,5.46777,4.88623c0,1.55859-0.87207,2.82617-2.03418,3.67139
				C367.30731,252.71947,368.60126,254.4099,368.60126,256.60181z M366.32977,256.60181c0-2.08644-1.84863-3.53908-4.25195-3.53908
				c-2.43066,0-4.25293,1.45264-4.25293,3.53908c0,2.08691,1.82227,3.53955,4.25293,3.53955
				C364.48114,260.14136,366.32977,258.68872,366.32977,256.60181z M358.88153,248.09691c0,1.82275,1.69043,2.7207,3.19629,2.7207
				c1.50488,0,3.19531-0.89795,3.19531-2.7207c0-1.82227-1.69043-2.74707-3.19531-2.74707
				C360.57196,245.34984,358.88153,246.27464,358.88153,248.09691z"/>
		</g>
	</g>
	<g>
		<g>
			<path class="st7" d="M433.83954,259.00903h10.24023v2.03809h-12.42969v-2.03809c0-5.2339,10.26562-5.86281,10.26562-10.56789
				c0-2.01318-1.55957-3.47217-3.69824-3.47217c-2.64258,0-4.40332,1.61035-4.40332,3.74902h-2.16406
				c0-3.2207,2.71777-5.7876,6.59277-5.7876c3.32129,0,5.83691,2.21436,5.83691,5.58594
				C444.07977,254.68138,433.83954,255.33519,433.83954,259.00903z"/>
			<path class="st7" d="M449.15985,259.00903h10.24023v2.03809H446.9704v-2.03809c0-5.2339,10.26562-5.86281,10.26562-10.56789
				c0-2.01318-1.55957-3.47217-3.69824-3.47217c-2.64258,0-4.40332,1.61035-4.40332,3.74902h-2.16406
				c0-3.2207,2.71777-5.7876,6.59277-5.7876c3.32129,0,5.83691,2.21436,5.83691,5.58594
				C459.40009,254.68138,449.15985,255.33519,449.15985,259.00903z"/>
		</g>
	</g>
	<g>
		<g>
			<path class="st7" d="M176.6003,322.91626v2.13965h-10.98828v-2.13965h4.3584v-13.81396l-3.61816,0.89844v-2.27148
				l5.88965-1.42676v16.61377H176.6003z"/>
			<path class="st7" d="M240.57491,318.87524c0,3.51318-2.77344,6.44482-6.62988,6.44482c-4.14648,0-6.62988-2.87891-6.62988-6.1543
				h2.27148c0.02637,2.16602,1.74316,3.88281,4.33203,3.88281c2.37695,0,4.41113-1.74316,4.41113-4.27881
				c0-2.7998-1.98145-4.33203-4.41113-4.33203c-1.58496,0-3.53906,0.73975-4.17285,2.56201h-2.21875l1.6377-10.69727h10.08887
				v2.13965h-8.1875l-0.79297,5.12402c1.18945-0.76562,2.61523-1.16211,4.12109-1.16211
				C237.7751,312.40405,240.57491,314.8606,240.57491,318.87524z"/>
			<path class="st7" d="M265.7536,323.23755v-6.43604h-6.42285v-1.05762h6.42285v-6.41016h1.03125v6.41016h6.44922v1.05762h-6.44922
				v6.43604H265.7536z"/>
			<path class="st7" d="M293.74481,322.91626h10.75v2.13965h-13.04785v-2.13965c0-5.49365,10.77637-6.15381,10.77637-11.09326
				c0-2.11279-1.6377-3.64502-3.88281-3.64502c-2.77246,0-4.62207,1.69043-4.62207,3.93555h-2.27148
				c0-3.38086,2.85254-6.07471,6.9209-6.07471c3.48633,0,6.12695,2.32422,6.12695,5.86328
				C304.49481,318.37329,293.74481,319.0603,293.74481,322.91626z"/>
			<path class="st7" d="M369.6579,306.30249v2.13965l-8.0293,16.61377h-2.45605l8.0293-16.61377h-10.32715v-2.13965H369.6579z"/>
		</g>
	</g>
	<g>
		<g>
			<path class="st7" d="M443.50165,321.94165v2.03809h-10.4668v-2.03809h4.15137v-13.15967l-3.44727,0.85547v-2.16406
				l5.61133-1.3584v15.82666H443.50165z"/>
			<path class="st7" d="M455.87958,315.22339h0.02539l-5.71191,8.75635h-2.5166l4.00098-6.01367
				c-0.37695,0.07568-0.75488,0.10059-1.15723,0.10059c-3.59863,0-6.29004-2.84326-6.29004-6.11426
				c0-3.29639,2.69141-6.08936,6.29004-6.08936c3.64844,0,6.34082,2.79297,6.34082,6.08936
				C456.86102,313.13501,456.50848,314.26733,455.87958,315.22339z M450.5202,316.00366c2.41504,0,4.20215-1.88721,4.20215-4.05127
				s-1.78711-4.05078-4.20215-4.05078c-2.36523,0-4.12695,1.88672-4.12695,4.05078S448.15497,316.00366,450.5202,316.00366z"/>
		</g>
	</g>
	<g>
		<g>
			<path class="st7" d="M176.25557,445.64038c0,2.95801-2.32422,5.5459-6.36621,5.5459c-4.14648,0-6.89355-2.77246-6.89355-6.15332
				h2.27148c0,2.48242,2.03418,4.01465,4.5166,4.01465c2.66797,0,4.22656-1.55859,4.22656-3.54004
				c0-2.37695-2.13965-3.19531-4.46387-3.19531h-1.45312v-2.16602h1.45312c2.35059,0,3.6709-1.13574,3.6709-2.90527
				c0-1.84961-1.42578-3.19629-3.69727-3.19629c-2.4834,0-4.25293,1.66406-4.25293,4.01465h-2.27148
				c0-3.38086,2.4834-6.1543,6.62988-6.1543c3.5127,0,5.83691,2.4043,5.83691,5.23047c0,1.84863-0.92383,3.19531-2.27148,4.01465
				C174.90791,441.94214,176.25557,443.39526,176.25557,445.64038z"/>
			<path class="st7" d="M240.44112,444.79468c0,3.45996-2.82617,6.3916-6.60254,6.3916c-3.83008,0-6.65625-2.93164-6.65625-6.3916
				c0-1.29395,0.39551-2.53516,1.10938-3.56543l5.91602-9.05957h2.61523l-4.2002,6.3125
				c0.39648-0.05273,0.79297-0.10547,1.21582-0.10547C237.61494,438.37671,240.44112,441.36108,240.44112,444.79468z
				 M238.196,444.79468c0-2.27148-1.875-4.27832-4.35742-4.27832c-2.53613,0-4.38477,2.00684-4.38477,4.27832
				s1.84863,4.25293,4.38477,4.25293C236.321,449.04761,238.196,447.06616,238.196,444.79468z"/>
			<path class="st7" d="M265.09149,449.10425v-6.43652h-6.42285v-1.05664h6.42285v-6.41016h1.03125v6.41016h6.44922v1.05664
				h-6.44922v6.43652H265.09149z"/>
			<path class="st7" d="M305.07489,447.06616h-2.61523v3.85645h-2.27148v-3.85645h-9.93164v-2.13965l9.93164-12.75684h2.27148
				v12.75684h2.61523V447.06616z M300.18817,444.92651v-9.29688l-7.0791,9.29688H300.18817z"/>
			<path class="st7" d="M368.81122,445.4021c0,3.22266-2.64062,5.67871-6.52344,5.67871s-6.52441-2.45605-6.52441-5.67871
				c0-2.19238,1.29492-3.88281,3.06445-4.83301c-1.16211-0.8457-2.00781-2.11328-2.00781-3.67188
				c0-2.87891,2.53613-4.88672,5.46777-4.88672s5.4668,2.00781,5.4668,4.88672c0,1.55859-0.87109,2.82617-2.0332,3.67188
				C367.51727,441.51929,368.81122,443.20972,368.81122,445.4021z M366.53973,445.4021c0-2.08594-1.84863-3.53906-4.25195-3.53906
				c-2.43066,0-4.25293,1.45312-4.25293,3.53906c0,2.08691,1.82227,3.53906,4.25293,3.53906
				C364.6911,448.94116,366.53973,447.48901,366.53973,445.4021z M359.09149,436.89722c0,1.82227,1.69043,2.7207,3.19629,2.7207
				c1.50488,0,3.19531-0.89844,3.19531-2.7207s-1.69043-2.74707-3.19531-2.74707
				C360.78192,434.15015,359.09149,435.07495,359.09149,436.89722z"/>
		</g>
	</g>
	<g>
		<g>
			<path class="st7" d="M442.3952,443.95972c0,3.34668-2.6416,6.13965-6.31543,6.13965c-3.9502,0-6.31543-2.74316-6.31543-5.86328
				h2.16406c0.02539,2.06348,1.66016,3.69922,4.12598,3.69922c2.26465,0,4.20215-1.66113,4.20215-4.07617
				c0-2.66699-1.88672-4.12695-4.20215-4.12695c-1.50977,0-3.37109,0.70508-3.97559,2.44043h-2.11328l1.56055-10.19043h9.61133
				v2.03809h-7.7998l-0.75488,4.88184c1.13184-0.72949,2.49023-1.10742,3.9248-1.10742
				C439.72821,437.79468,442.3952,440.13452,442.3952,443.95972z"/>
			<path class="st7" d="M459.24969,438.04663v5.73633c0,3.90039-3.09473,6.31641-6.54199,6.31641s-6.54199-2.41602-6.54199-6.31641
				v-5.73633c0-3.90039,3.09473-6.31543,6.54199-6.31543S459.24969,434.14624,459.24969,438.04663z M457.08661,443.78296v-5.73633
				c0-2.5166-1.96289-4.27734-4.37891-4.27734c-2.41504,0-4.37793,1.76074-4.37793,4.27734v5.73633
				c0,2.5166,1.96289,4.27832,4.37793,4.27832C455.12372,448.06128,457.08661,446.29956,457.08661,443.78296z"/>
		</g>
	</g>
	<g>
		<g>
			<path class="st7" d="M176.88448,382.70776c0,2.95801-2.32422,5.5459-6.36621,5.5459c-4.14648,0-6.89355-2.77246-6.89355-6.15332
				h2.27148c0,2.48242,2.03418,4.01465,4.5166,4.01465c2.66797,0,4.22656-1.55859,4.22656-3.54004
				c0-2.37695-2.13965-3.19531-4.46387-3.19531h-1.45312v-2.16602h1.45312c2.35059,0,3.6709-1.13574,3.6709-2.90527
				c0-1.84961-1.42578-3.19629-3.69727-3.19629c-2.4834,0-4.25293,1.66406-4.25293,4.01465h-2.27148
				c0-3.38086,2.4834-6.1543,6.62988-6.1543c3.5127,0,5.83691,2.4043,5.83691,5.23047c0,1.84863-0.92383,3.19531-2.27148,4.01465
				C175.53682,379.00952,176.88448,380.46265,176.88448,382.70776z"/>
			<path class="st7" d="M240.75264,381.80933c0,3.5127-2.77344,6.44434-6.62988,6.44434c-4.14648,0-6.62988-2.87891-6.62988-6.15332
				h2.27148c0.02637,2.16504,1.74316,3.88184,4.33203,3.88184c2.37695,0,4.41113-1.74316,4.41113-4.27832
				c0-2.7998-1.98145-4.33203-4.41113-4.33203c-1.58496,0-3.53906,0.73926-4.17285,2.5625h-2.21875l1.6377-10.69727h10.08887
				v2.13965h-8.1875l-0.79297,5.12402c1.18945-0.7666,2.61523-1.16211,4.12109-1.16211
				C237.95284,375.33862,240.75264,377.79468,240.75264,381.80933z"/>
			<path class="st7" d="M265.13934,386.17163v-6.43652h-6.42285v-1.05664h6.42285v-6.41016h1.03125v6.41016h6.44922v1.05664
				h-6.44922v6.43652H265.13934z"/>
			<path class="st7" d="M305.12274,384.13354h-2.61523v3.85645h-2.27148v-3.85645h-9.93164v-2.13965l9.93164-12.75684h2.27148
				v12.75684h2.61523V384.13354z M300.23602,381.9939v-9.29688l-7.0791,9.29688H300.23602z"/>
			<path class="st7" d="M369.75751,369.23706v2.13965l-8.0293,16.61328h-2.45605l8.0293-16.61328H356.9743v-2.13965H369.75751z"/>
		</g>
	</g>
	<g>
		<g>
			<path class="st7" d="M444.63446,383.23999h-2.49121v3.67383h-2.16406v-3.67383h-9.45996v-2.03809l9.45996-12.15332h2.16406
				v12.15332h2.49121V383.23999z M439.97919,381.2019v-8.85645l-6.74316,8.85645H439.97919z"/>
			<path class="st7" d="M459.70282,381.88159c0,2.81836-2.21387,5.28418-6.06348,5.28418c-3.9502,0-6.56738-2.64258-6.56738-5.86328
				h2.16406c0,2.36523,1.9375,3.8252,4.30273,3.8252c2.54102,0,4.02539-1.48535,4.02539-3.37207
				c0-2.26465-2.03809-3.04492-4.25195-3.04492h-1.38379v-2.0625h1.38379c2.23926,0,3.49707-1.08203,3.49707-2.76855
				c0-1.76074-1.3584-3.04395-3.52246-3.04395c-2.36523,0-4.05078,1.58496-4.05078,3.82422h-2.16406
				c0-3.2207,2.36523-5.8623,6.31543-5.8623c3.34668,0,5.56055,2.28906,5.56055,4.98145c0,1.76172-0.88086,3.04492-2.16406,3.8252
				C458.41962,378.35913,459.70282,379.74292,459.70282,381.88159z"/>
		</g>
	</g>
	<g>
		<g>
			<path class="st7" d="M461.43427,82.3518h10.24023v2.03809h-12.42969V82.3518c0-5.23389,10.26562-5.86279,10.26562-10.56787
				c0-2.01318-1.55957-3.47217-3.69824-3.47217c-2.64258,0-4.40332,1.61035-4.40332,3.74902h-2.16406
				c0-3.2207,2.71777-5.7876,6.5918-5.7876c3.32227,0,5.83789,2.21436,5.83789,5.58594
				C471.6745,78.02416,461.43427,78.67797,461.43427,82.3518z"/>
			<path class="st7" d="M476.75458,82.3518h10.24023v2.03809h-12.42969V82.3518c0-5.23389,10.26562-5.86279,10.26562-10.56787
				c0-2.01318-1.55957-3.47217-3.69824-3.47217c-2.64258,0-4.40332,1.61035-4.40332,3.74902h-2.16406
				c0-3.2207,2.71777-5.7876,6.5918-5.7876c3.32227,0,5.83789,2.21436,5.83789,5.58594
				C486.99481,78.02416,476.75458,78.67797,476.75458,82.3518z"/>
		</g>
	</g>
	<g>
		<g>
			<path class="st7" d="M412.60614,82.3518v2.03809h-10.4668V82.3518h4.15137V69.19213l-3.44727,0.85547v-2.16406l5.61133-1.3584
				V82.3518H412.60614z"/>
			<path class="st7" d="M424.98407,75.63354h0.02539l-5.71191,8.75635h-2.5166l4.00098-6.01367
				c-0.37695,0.07568-0.75488,0.10059-1.15723,0.10059c-3.59863,0-6.29004-2.84326-6.29004-6.11426
				c0-3.29639,2.69141-6.08936,6.29004-6.08936c3.64844,0,6.34082,2.79297,6.34082,6.08936
				C425.96552,73.54516,425.61298,74.67748,424.98407,75.63354z M419.62469,76.41381c2.41504,0,4.20215-1.88721,4.20215-4.05127
				s-1.78711-4.05078-4.20215-4.05078c-2.36523,0-4.12695,1.88672-4.12695,4.05078S417.25946,76.41381,419.62469,76.41381z"/>
		</g>
	</g>
	<g>
		<g>
			<path class="st7" d="M471.87567,128.95238c0,3.34619-2.6416,6.13916-6.31543,6.13916c-3.9502,0-6.31543-2.74268-6.31543-5.8623
				h2.16406c0.02539,2.06299,1.66016,3.69873,4.12598,3.69873c2.26465,0,4.20215-1.66064,4.20215-4.07617
				c0-2.66747-1.88672-4.12695-4.20215-4.12695c-1.50977,0-3.37109,0.70459-3.97559,2.44092h-2.11328l1.56055-10.19043h9.61133
				v2.03809h-7.7998l-0.75488,4.88135c1.13184-0.72998,2.49023-1.10693,3.9248-1.10693
				C469.20868,122.78783,471.87567,125.12768,471.87567,128.95238z"/>
			<path class="st7" d="M488.73016,123.0393v5.73681c0,3.8999-3.09473,6.31543-6.54199,6.31543s-6.54199-2.41553-6.54199-6.31543
				v-5.73681c0-3.8999,3.09473-6.31592,6.54199-6.31592S488.73016,119.1394,488.73016,123.0393z M486.56708,128.77611v-5.73681
				c0-2.51611-1.96289-4.27734-4.37891-4.27734c-2.41504,0-4.37793,1.76123-4.37793,4.27734v5.73681
				c0,2.51611,1.96289,4.27734,4.37793,4.27734C484.60419,133.05345,486.56708,131.29222,486.56708,128.77611z"/>
		</g>
	</g>
	<g>
		<g>
			<path class="st7" d="M416.25458,131.16624h-2.49121v3.67383h-2.16406v-3.67383h-9.45996v-2.03809l9.45996-12.15282h2.16406
				v12.15282h2.49121V131.16624z M411.5993,129.12816v-8.85693l-6.74316,8.85693H411.5993z"/>
			<path class="st7" d="M431.32294,129.80785c0,2.81787-2.21387,5.28369-6.06348,5.28369c-3.9502,0-6.56738-2.6416-6.56738-5.8623
				h2.16406c0,2.36475,1.9375,3.82422,4.30273,3.82422c2.54102,0,4.02539-1.48438,4.02539-3.37158
				c0-2.26464-2.03809-3.04443-4.25195-3.04443h-1.38379v-2.06348h1.38379c2.23926,0,3.49707-1.08203,3.49707-2.76758
				c0-1.76123-1.3584-3.04443-3.52246-3.04443c-2.36523,0-4.05078,1.58496-4.05078,3.82422h-2.16406
				c0-3.2207,2.36523-5.86279,6.31543-5.86279c3.34668,0,5.56055,2.29004,5.56055,4.98242
				c0,1.76123-0.88086,3.04443-2.16406,3.82422C430.03973,126.2849,431.32294,127.66918,431.32294,129.80785z"/>
		</g>
	</g>
	<g>
		<g>
			<g>
				<path class="st7" d="M136.02119,82.61791h10.24023V84.656h-12.42969v-2.03809c0-5.23389,10.26562-5.86279,10.26562-10.56787
					c0-2.01318-1.55957-3.47217-3.69824-3.47217c-2.64258,0-4.40332,1.61035-4.40332,3.74902h-2.16406
					c0-3.2207,2.71777-5.78711,6.59277-5.78711c3.32129,0,5.83691,2.21387,5.83691,5.58545
					C146.26143,78.29028,136.02119,78.94408,136.02119,82.61791z"/>
			</g>
		</g>
	</g>
	<g>
		<g>
			<g>
				<path class="st7" d="M89.87276,82.61791V84.656h-10.4668v-2.03809h4.15137V69.45824l-3.44727,0.85547v-2.16357l5.61133-1.35889
					v15.82666H89.87276z"/>
			</g>
		</g>
	</g>
	<g>
		<g>
			<g>
				<path class="st7" d="M147.44405,131.43236h-2.49121v3.67383h-2.16406v-3.67383h-9.45996v-2.03809l9.45996-12.15282h2.16406
					v12.15282h2.49121V131.43236z M142.78877,129.39427v-8.85693l-6.74316,8.85693H142.78877z"/>
			</g>
		</g>
	</g>
	<g>
		<g>
			<g>
				<path class="st7" d="M92.53975,130.07396c0,2.81787-2.21387,5.28369-6.06348,5.28369c-3.9502,0-6.56738-2.6416-6.56738-5.8623
					h2.16406c0,2.36475,1.9375,3.82422,4.30273,3.82422c2.54102,0,4.02539-1.48438,4.02539-3.37158
					c0-2.26464-2.03809-3.04443-4.25195-3.04443h-1.38379v-2.06348h1.38379c2.23926,0,3.49707-1.08203,3.49707-2.76758
					c0-1.76123-1.3584-3.04443-3.52246-3.04443c-2.36523,0-4.05078,1.58496-4.05078,3.82422h-2.16406
					c0-3.2207,2.36523-5.8623,6.31543-5.8623c3.34668,0,5.56055,2.28955,5.56055,4.98193c0,1.76123-0.88086,3.04443-2.16406,3.82422
					C91.25655,126.55102,92.53975,127.9353,92.53975,130.07396z"/>
			</g>
		</g>
	</g>
	<g>
		<g>
			<g>
				<path class="st7" d="M308.5495,78.8186c0,3.2959-2.69238,6.08887-6.29102,6.08887c-3.64844,0-6.33984-2.79297-6.33984-6.08887
					c0-1.23291,0.37695-2.41553,1.05664-3.39697l5.63574-8.63037h2.49121l-4.00098,6.01367
					c0.37793-0.05029,0.75488-0.10059,1.15723-0.10059C305.85712,72.70434,308.5495,75.5476,308.5495,78.8186z M306.41083,78.8186
					c0-2.16406-1.78711-4.07617-4.15234-4.07617c-2.41504,0-4.17676,1.91211-4.17676,4.07617
					c0,2.16357,1.76172,4.05078,4.17676,4.05078C304.62372,82.86938,306.41083,80.98217,306.41083,78.8186z"/>
			</g>
		</g>
	</g>
	<g>
		<g>
			<g>
				<path class="st7" d="M254.37569,78.7683c0,3.34619-2.6416,6.13916-6.31543,6.13916c-3.9502,0-6.31543-2.74268-6.31543-5.8623
					h2.16406c0.02539,2.06299,1.66016,3.69873,4.12598,3.69873c2.26465,0,4.20215-1.66064,4.20215-4.07617
					c0-2.66748-1.88672-4.12695-4.20215-4.12695c-1.50977,0-3.37109,0.70459-3.97559,2.44092H241.946l1.56055-10.19043h9.61133
					v2.03809h-7.7998l-0.75488,4.88135c1.13184-0.72949,2.49023-1.10693,3.9248-1.10693
					C251.70869,72.60375,254.37569,74.9436,254.37569,78.7683z"/>
			</g>
		</g>
	</g>
	<g>
		<g>
			<g>
				<path class="st7" d="M308.09637,129.8474c0,3.06982-2.51562,5.40967-6.21484,5.40967s-6.21484-2.33984-6.21484-5.40967
					c0-2.08837,1.23242-3.69872,2.91895-4.60448c-1.10742-0.80518-1.91211-2.01318-1.91211-3.49756
					c0-2.74268,2.41504-4.65479,5.20801-4.65479s5.20898,1.91211,5.20898,4.65479c0,1.48438-0.83105,2.69238-1.9375,3.49756
					C306.86395,126.14867,308.09637,127.75903,308.09637,129.8474z M305.93231,129.8474c0-1.98779-1.76074-3.37157-4.05078-3.37157
					c-2.31445,0-4.05078,1.38379-4.05078,3.37157c0,1.98779,1.73633,3.37158,4.05078,3.37158
					C304.17157,133.21898,305.93231,131.83519,305.93231,129.8474z M298.83661,121.74535c0,1.73633,1.61035,2.5918,3.04492,2.5918
					s3.04492-0.85547,3.04492-2.5918s-1.61035-2.6167-3.04492-2.6167S298.83661,120.00903,298.83661,121.74535z"/>
			</g>
		</g>
	</g>
	<g>
		<g>
			<g>
				<path class="st7" d="M253.67159,117.24145v2.03809l-7.64941,15.82665h-2.33984l7.64941-15.82665h-9.83887v-2.03809H253.67159z"
					/>
			</g>
		</g>
	</g>
	<g>
		<rect x="450.50391" y="511.6293" class="st33" width="11.78747" height="0.00001"/>
	</g>
</g>
<g id="Layer_1">
</g>
</svg>
